<mxfile host="app.diagrams.net" modified="2022-08-17T01:28:35.861Z" agent="5.0 (Windows NT 10.0; Win64; x64) AppleWebKit/537.36 (KHTML, like Gecko) Chrome/104.0.0.0 Safari/537.36" etag="r_r9pJJG2gaw-epqGHez" version="20.2.4" type="github">
  <diagram id="CaXPglxFFC9VE6DHdU04" name="Page-1">
    <mxGraphModel dx="793" dy="1104" grid="1" gridSize="10" guides="1" tooltips="1" connect="1" arrows="1" fold="1" page="1" pageScale="1" pageWidth="850" pageHeight="1100" math="0" shadow="0">
      <root>
        <mxCell id="0" />
        <mxCell id="1" parent="0" />
      </root>
    </mxGraphModel>
  </diagram>
</mxfile>
